<mxfile host="app.diagrams.net" modified="2024-04-23T16:00:15.571Z" agent="Mozilla/5.0 (Windows NT 10.0; Win64; x64) AppleWebKit/537.36 (KHTML, like Gecko) Chrome/121.0.0.0 Safari/537.36 OPR/107.0.0.0" etag="AH0YeKYOCgM-M84ZuODD" version="24.2.5" type="github">
  <diagram name="Страница — 1" id="Ls7OTeVVIENARa1bBbvx">
    <mxGraphModel dx="1395" dy="1399" grid="0" gridSize="10" guides="1" tooltips="1" connect="1" arrows="1" fold="1" page="0" pageScale="1" pageWidth="827" pageHeight="1169" math="0" shadow="0">
      <root>
        <mxCell id="0" />
        <mxCell id="1" parent="0" />
        <mxCell id="lT029Z_l_i1T4qDx1bGM-26" style="edgeStyle=none;curved=1;rounded=0;orthogonalLoop=1;jettySize=auto;html=1;exitX=0.5;exitY=1;exitDx=0;exitDy=0;entryX=0.5;entryY=0;entryDx=0;entryDy=0;fontSize=12;startSize=8;endSize=8;" edge="1" parent="1" source="lT029Z_l_i1T4qDx1bGM-1" target="lT029Z_l_i1T4qDx1bGM-2">
          <mxGeometry relative="1" as="geometry" />
        </mxCell>
        <mxCell id="lT029Z_l_i1T4qDx1bGM-27" style="edgeStyle=none;curved=1;rounded=0;orthogonalLoop=1;jettySize=auto;html=1;exitX=0.5;exitY=1;exitDx=0;exitDy=0;entryX=0.5;entryY=0;entryDx=0;entryDy=0;fontSize=12;startSize=8;endSize=8;" edge="1" parent="1" source="lT029Z_l_i1T4qDx1bGM-1" target="lT029Z_l_i1T4qDx1bGM-5">
          <mxGeometry relative="1" as="geometry" />
        </mxCell>
        <mxCell id="lT029Z_l_i1T4qDx1bGM-28" style="edgeStyle=none;curved=1;rounded=0;orthogonalLoop=1;jettySize=auto;html=1;exitX=0.5;exitY=1;exitDx=0;exitDy=0;entryX=0.5;entryY=0;entryDx=0;entryDy=0;fontSize=12;startSize=8;endSize=8;" edge="1" parent="1" source="lT029Z_l_i1T4qDx1bGM-1" target="lT029Z_l_i1T4qDx1bGM-3">
          <mxGeometry relative="1" as="geometry" />
        </mxCell>
        <mxCell id="lT029Z_l_i1T4qDx1bGM-29" style="edgeStyle=none;curved=1;rounded=0;orthogonalLoop=1;jettySize=auto;html=1;exitX=0.5;exitY=1;exitDx=0;exitDy=0;entryX=0.5;entryY=0;entryDx=0;entryDy=0;fontSize=12;startSize=8;endSize=8;" edge="1" parent="1" source="lT029Z_l_i1T4qDx1bGM-1" target="lT029Z_l_i1T4qDx1bGM-6">
          <mxGeometry relative="1" as="geometry" />
        </mxCell>
        <mxCell id="lT029Z_l_i1T4qDx1bGM-30" style="edgeStyle=none;curved=1;rounded=0;orthogonalLoop=1;jettySize=auto;html=1;exitX=0.5;exitY=1;exitDx=0;exitDy=0;entryX=0.5;entryY=0;entryDx=0;entryDy=0;fontSize=12;startSize=8;endSize=8;" edge="1" parent="1" source="lT029Z_l_i1T4qDx1bGM-1" target="lT029Z_l_i1T4qDx1bGM-7">
          <mxGeometry relative="1" as="geometry" />
        </mxCell>
        <mxCell id="lT029Z_l_i1T4qDx1bGM-31" style="edgeStyle=none;curved=1;rounded=0;orthogonalLoop=1;jettySize=auto;html=1;exitX=0.5;exitY=1;exitDx=0;exitDy=0;entryX=0.5;entryY=0;entryDx=0;entryDy=0;fontSize=12;startSize=8;endSize=8;" edge="1" parent="1" source="lT029Z_l_i1T4qDx1bGM-1" target="lT029Z_l_i1T4qDx1bGM-17">
          <mxGeometry relative="1" as="geometry" />
        </mxCell>
        <mxCell id="lT029Z_l_i1T4qDx1bGM-1" value="Початок" style="ellipse;whiteSpace=wrap;html=1;" vertex="1" parent="1">
          <mxGeometry x="141" y="-592" width="120" height="80" as="geometry" />
        </mxCell>
        <mxCell id="lT029Z_l_i1T4qDx1bGM-41" style="edgeStyle=none;curved=0;rounded=0;orthogonalLoop=1;jettySize=auto;html=1;fontSize=12;startSize=8;endSize=8;entryX=0;entryY=0.5;entryDx=0;entryDy=0;" edge="1" parent="1" target="lT029Z_l_i1T4qDx1bGM-1">
          <mxGeometry relative="1" as="geometry">
            <mxPoint x="-243" y="-330" as="targetPoint" />
            <mxPoint x="398" y="-270" as="sourcePoint" />
            <Array as="points">
              <mxPoint x="-234" y="-268" />
              <mxPoint x="-234" y="-552" />
            </Array>
          </mxGeometry>
        </mxCell>
        <mxCell id="lT029Z_l_i1T4qDx1bGM-2" value="Створити персонажа(клас Character)" style="rounded=1;whiteSpace=wrap;html=1;" vertex="1" parent="1">
          <mxGeometry x="-186.5" y="-383" width="120" height="60" as="geometry" />
        </mxCell>
        <mxCell id="lT029Z_l_i1T4qDx1bGM-3" value="Додати предмет до інвентаря" style="rounded=1;whiteSpace=wrap;html=1;" vertex="1" parent="1">
          <mxGeometry x="75.5" y="-383" width="120" height="60" as="geometry" />
        </mxCell>
        <mxCell id="lT029Z_l_i1T4qDx1bGM-5" value="Видалити персонажа(клас Character)" style="rounded=1;whiteSpace=wrap;html=1;" vertex="1" parent="1">
          <mxGeometry x="-55.5" y="-383" width="120" height="60" as="geometry" />
        </mxCell>
        <mxCell id="lT029Z_l_i1T4qDx1bGM-6" value="Видалити предмет з інвентаря" style="rounded=1;whiteSpace=wrap;html=1;" vertex="1" parent="1">
          <mxGeometry x="206.5" y="-383" width="120" height="60" as="geometry" />
        </mxCell>
        <mxCell id="lT029Z_l_i1T4qDx1bGM-7" value="Змінити характеристики персонажа" style="rounded=1;whiteSpace=wrap;html=1;" vertex="1" parent="1">
          <mxGeometry x="337.5" y="-383" width="120" height="60" as="geometry" />
        </mxCell>
        <mxCell id="lT029Z_l_i1T4qDx1bGM-33" style="edgeStyle=none;curved=1;rounded=0;orthogonalLoop=1;jettySize=auto;html=1;exitX=0.5;exitY=1;exitDx=0;exitDy=0;entryX=0.5;entryY=0;entryDx=0;entryDy=0;fontSize=12;startSize=8;endSize=8;" edge="1" parent="1" source="lT029Z_l_i1T4qDx1bGM-17" target="lT029Z_l_i1T4qDx1bGM-32">
          <mxGeometry relative="1" as="geometry" />
        </mxCell>
        <mxCell id="lT029Z_l_i1T4qDx1bGM-17" value="Вихід з програми&lt;div&gt;(Збереження данних)&lt;/div&gt;" style="rounded=1;whiteSpace=wrap;html=1;" vertex="1" parent="1">
          <mxGeometry x="468.5" y="-383" width="120" height="60" as="geometry" />
        </mxCell>
        <mxCell id="lT029Z_l_i1T4qDx1bGM-32" value="Кінець" style="ellipse;whiteSpace=wrap;html=1;" vertex="1" parent="1">
          <mxGeometry x="468.5" y="-199" width="120" height="80" as="geometry" />
        </mxCell>
        <mxCell id="lT029Z_l_i1T4qDx1bGM-43" value="" style="endArrow=none;html=1;rounded=0;fontSize=12;startSize=8;endSize=8;curved=1;entryX=0.5;entryY=1;entryDx=0;entryDy=0;" edge="1" parent="1">
          <mxGeometry width="50" height="50" relative="1" as="geometry">
            <mxPoint x="-126.29" y="-270" as="sourcePoint" />
            <mxPoint x="-126.79" y="-323" as="targetPoint" />
          </mxGeometry>
        </mxCell>
        <mxCell id="lT029Z_l_i1T4qDx1bGM-44" value="" style="endArrow=none;html=1;rounded=0;fontSize=12;startSize=8;endSize=8;curved=1;entryX=0.5;entryY=1;entryDx=0;entryDy=0;" edge="1" parent="1">
          <mxGeometry width="50" height="50" relative="1" as="geometry">
            <mxPoint x="4.21" y="-270" as="sourcePoint" />
            <mxPoint x="4.21" y="-323" as="targetPoint" />
          </mxGeometry>
        </mxCell>
        <mxCell id="lT029Z_l_i1T4qDx1bGM-45" value="" style="endArrow=none;html=1;rounded=0;fontSize=12;startSize=8;endSize=8;curved=1;entryX=0.5;entryY=1;entryDx=0;entryDy=0;" edge="1" parent="1">
          <mxGeometry width="50" height="50" relative="1" as="geometry">
            <mxPoint x="135.14" y="-270" as="sourcePoint" />
            <mxPoint x="135.14" y="-323" as="targetPoint" />
          </mxGeometry>
        </mxCell>
        <mxCell id="lT029Z_l_i1T4qDx1bGM-46" value="" style="endArrow=none;html=1;rounded=0;fontSize=12;startSize=8;endSize=8;curved=1;entryX=0.5;entryY=1;entryDx=0;entryDy=0;" edge="1" parent="1">
          <mxGeometry width="50" height="50" relative="1" as="geometry">
            <mxPoint x="266.21" y="-270" as="sourcePoint" />
            <mxPoint x="266.21" y="-323" as="targetPoint" />
          </mxGeometry>
        </mxCell>
        <mxCell id="lT029Z_l_i1T4qDx1bGM-47" value="" style="endArrow=none;html=1;rounded=0;fontSize=12;startSize=8;endSize=8;curved=1;entryX=0.5;entryY=1;entryDx=0;entryDy=0;" edge="1" parent="1">
          <mxGeometry width="50" height="50" relative="1" as="geometry">
            <mxPoint x="397.5" y="-270" as="sourcePoint" />
            <mxPoint x="397.5" y="-323" as="targetPoint" />
          </mxGeometry>
        </mxCell>
      </root>
    </mxGraphModel>
  </diagram>
</mxfile>
